# xmcd
#
# Track frame offsets: 
#        150
#        19375
#        36147
#        38862
#        65237
#        68630
#        88150
#        105657
#        120827
#        125687
#        151315
#        161977
#        173602
#        182352
#        198580
#        203480
#        220367
#        230050
#        249430
#        253960
#        275102
#
# Disc length: 3737 seconds
#
# Revision: 7
# Processed by: cddbd v1.5.2PL0 Copyright (c) Steve Scherf et al.
# Submitted via: ExactAudioCopy v1.0b1
#
DISCID=370e9715
DTITLE=Johann Sebastian Bach - Bach Edition CD III-3 Cantatas - Kantat
DTITLE=en BWV 97,132,72
DYEAR=2006
DGENRE=Classical
TTITLE0=In allen meinen Taten BWV 97: I - Coro
TTITLE1=In allen meinen Taten BWV 97: II - Aria (Basso)
TTITLE2=In allen meinen Taten BWV 97: III - Recitativo
TTITLE3=In allen meinen Taten BWV 97: IV - Aria (Tenore)
TTITLE4=In allen meinen Taten BWV 97: V - Recitativo (Alto)
TTITLE5=In allen meinen Taten BWV 97: VI - Aria (Alto)
TTITLE6=In allen meinen Taten BWV 97: VII - Duetto (Soprano, Basso)
TTITLE7=In allen meinen Taten BWV 97: VIII - Aria (Soprano)
TTITLE8=In allen meinen Taten BWV 97: XI - Choral (Coro)
TTITLE9=Bereitet de Wege, bereitet die Bahn BWV 132: I - Aria (Soprano
TTITLE9=)
TTITLE10=Bereitet de Wege, bereitet die Bahn BWV 132: II - Recitativo 
TTITLE10=(Tenore)
TTITLE11=Bereitet de Wege, bereitet die Bahn BWV 132: III - Aria (Bass
TTITLE11=o)
TTITLE12=Bereitet de Wege, bereitet die Bahn BWV 132: IV - Recitativo 
TTITLE12=(Alto)
TTITLE13=Bereitet de Wege, bereitet die Bahn BWV 132: VI - Aria (Alto)
TTITLE14=Bereitet de Wege, bereitet die Bahn BWV 132: VI - Choral (Cor
TTITLE14=o)
TTITLE15=Alles nur nach Gottes Willen BWV 72: I - Coro
TTITLE16=Alles nur nach Gottes Willen BWV 72: II - Recitativo (Alto)
TTITLE17=Alles nur nach Gottes Willen BWV 72: III - Aria (Alto)
TTITLE18=Alles nur nach Gottes Willen BWV 72: IV - Recitativo (Basso)
TTITLE19=Alles nur nach Gottes Willen BWV 72: V - Aria (Soprano)
TTITLE20=Alles nur nach Gottes Willen BWV 72: VI - Choral (Coro)
EXTD=YEAR: 2006
EXTT0=
EXTT1=
EXTT2=
EXTT3=
EXTT4=
EXTT5=
EXTT6=
EXTT7=
EXTT8=
EXTT9=
EXTT10=
EXTT11=
EXTT12=
EXTT13=
EXTT14=
EXTT15=
EXTT16=
EXTT17=
EXTT18=
EXTT19=
EXTT20=
PLAYORDER=
